<mxfile host="app.diagrams.net" modified="2025-04-11T11:56:18.216Z" agent="Mozilla/5.0 (Windows NT 10.0; Win64; x64) AppleWebKit/537.36 (KHTML, like Gecko) Chrome/135.0.0.0 Safari/537.36" etag="HjWIzn7qG2z8ORiokCVn" version="24.7.0" type="device">
  <diagram name="PÃ¡gina-1" id="vc_fsM0d02gZNpjMZLqo">
    <mxGraphModel dx="2634" dy="1202" grid="0" gridSize="10" guides="1" tooltips="1" connect="1" arrows="1" fold="1" page="0" pageScale="1" pageWidth="827" pageHeight="1169" math="0" shadow="0">
      <root>
        <mxCell id="0" />
        <mxCell id="1" parent="0" />
        <mxCell id="NG9HlF_eDZfWJkcM9aMC-6" value="" style="rounded=0;whiteSpace=wrap;html=1;" vertex="1" parent="1">
          <mxGeometry x="-787" y="-130" width="592" height="428" as="geometry" />
        </mxCell>
        <mxCell id="NG9HlF_eDZfWJkcM9aMC-1" value="Mysql" style="shape=datastore;whiteSpace=wrap;html=1;fillColor=#dae8fc;strokeColor=#6c8ebf;" vertex="1" parent="1">
          <mxGeometry x="-761" y="56" width="111" height="95" as="geometry" />
        </mxCell>
        <mxCell id="NG9HlF_eDZfWJkcM9aMC-2" value="" style="endArrow=classic;html=1;rounded=0;fontSize=12;startSize=8;endSize=8;curved=1;" edge="1" parent="1">
          <mxGeometry width="50" height="50" relative="1" as="geometry">
            <mxPoint x="-650" y="106" as="sourcePoint" />
            <mxPoint x="-541" y="106" as="targetPoint" />
          </mxGeometry>
        </mxCell>
        <mxCell id="NG9HlF_eDZfWJkcM9aMC-3" value="" style="whiteSpace=wrap;html=1;aspect=fixed;" vertex="1" parent="1">
          <mxGeometry x="-534" y="-53" width="300" height="300" as="geometry" />
        </mxCell>
        <mxCell id="NG9HlF_eDZfWJkcM9aMC-4" value="MVC" style="text;html=1;align=center;verticalAlign=middle;whiteSpace=wrap;rounded=0;fontSize=16;" vertex="1" parent="1">
          <mxGeometry x="-520" y="-35" width="61" height="30" as="geometry" />
        </mxCell>
        <mxCell id="NG9HlF_eDZfWJkcM9aMC-7" value="Museo&amp;nbsp;&lt;span style=&quot;background-color: initial;&quot;&gt;Backend&lt;/span&gt;" style="text;html=1;align=center;verticalAlign=middle;whiteSpace=wrap;rounded=0;fontSize=16;" vertex="1" parent="1">
          <mxGeometry x="-836" y="-124" width="244" height="30" as="geometry" />
        </mxCell>
        <mxCell id="NG9HlF_eDZfWJkcM9aMC-9" value="Post - Get / Museo" style="rounded=1;whiteSpace=wrap;html=1;fillColor=#ffe6cc;strokeColor=#663300;" vertex="1" parent="1">
          <mxGeometry x="-500" y="9" width="251" height="26" as="geometry" />
        </mxCell>
        <mxCell id="NG9HlF_eDZfWJkcM9aMC-10" value="Post - Get / Artista" style="rounded=1;whiteSpace=wrap;html=1;fillColor=#ffe6cc;strokeColor=#d79b00;" vertex="1" parent="1">
          <mxGeometry x="-500" y="44" width="251" height="26" as="geometry" />
        </mxCell>
        <mxCell id="NG9HlF_eDZfWJkcM9aMC-11" value="Post - Get - Put- Delete/ Salas" style="rounded=1;whiteSpace=wrap;html=1;fillColor=#ffe6cc;strokeColor=#d79b00;" vertex="1" parent="1">
          <mxGeometry x="-500" y="82" width="251" height="26" as="geometry" />
        </mxCell>
        <mxCell id="NG9HlF_eDZfWJkcM9aMC-12" value="Post - Get / Obra" style="rounded=1;whiteSpace=wrap;html=1;fillColor=#ffe6cc;strokeColor=#d79b00;" vertex="1" parent="1">
          <mxGeometry x="-500" y="120" width="251" height="26" as="geometry" />
        </mxCell>
        <mxCell id="NG9HlF_eDZfWJkcM9aMC-13" value="&lt;span style=&quot;padding: 0px 0px 0px 2px;&quot;&gt;&lt;span style=&quot;font-family: Consolas; font-size: 10pt; white-space: pre;&quot;&gt;GlobalExceptionHandler&lt;/span&gt;&lt;/span&gt;" style="rounded=1;whiteSpace=wrap;html=1;fillColor=#33FF99;strokeColor=#66FF66;" vertex="1" parent="1">
          <mxGeometry x="-500" y="158" width="251" height="26" as="geometry" />
        </mxCell>
        <mxCell id="NG9HlF_eDZfWJkcM9aMC-14" value="&lt;span style=&quot;padding: 0px 0px 0px 2px;&quot;&gt;&lt;span style=&quot;font-family: Consolas; font-size: 10pt; white-space: pre;&quot;&gt;Mockito Test&lt;/span&gt;&lt;/span&gt;" style="rounded=1;whiteSpace=wrap;html=1;fillColor=#33FF99;strokeColor=#66FF66;" vertex="1" parent="1">
          <mxGeometry x="-500" y="196" width="251" height="26" as="geometry" />
        </mxCell>
        <mxCell id="NG9HlF_eDZfWJkcM9aMC-15" value="Rest Java" style="text;html=1;align=center;verticalAlign=middle;whiteSpace=wrap;rounded=0;fontSize=16;" vertex="1" parent="1">
          <mxGeometry x="-451" y="252" width="124" height="30" as="geometry" />
        </mxCell>
      </root>
    </mxGraphModel>
  </diagram>
</mxfile>
